PathFileType	4	(X/Y/Z)	2014001\dynamic\2014001_C3_04.trc
DataRate	CameraRate	NumFrames	NumMarkers	Units	OrigDataRate	OrigDataStartFrame	OrigNumFrames
100.000000	100.000000	4	52	mm	100.000000	44	178
Frame#	Time	L_IAS			L_IPS			R_IPS			R_IAS			L_FTC			L_FLE			L_FME			L_FAX			L_TTC			L_FAL			L_TAM			L_FCC			L_FM1			L_FM2			L_FM5			R_FTC			R_FLE			R_FME			R_FAX			R_TTC			R_FAL			R_TAM			R_FCC			R_FM1			R_FM2			R_FM5			CV7			TV10			SXS			SJN			L_SIA			L_SRS			L_SAA			L_SAE			L_HLE			L_HME			L_UOA			L_RSP			L_UHE			L_HM2			L_HM5			R_SIA			R_SRS			R_SAA			R_SAE			R_HLE			R_HME			R_UOA			R_RSP			R_UHE			R_HM2			R_HM5			
		X1	Y1	Z1	X2	Y2	Z2	X3	Y3	Z3	X4	Y4	Z4	X5	Y5	Z5	X6	Y6	Z6	X7	Y7	Z7	X8	Y8	Z8	X9	Y9	Z9	X10	Y10	Z10	X11	Y11	Z11	X12	Y12	Z12	X13	Y13	Z13	X14	Y14	Z14	X15	Y15	Z15	X16	Y16	Z16	X17	Y17	Z17	X18	Y18	Z18	X19	Y19	Z19	X20	Y20	Z20	X21	Y21	Z21	X22	Y22	Z22	X23	Y23	Z23	X24	Y24	Z24	X25	Y25	Z25	X26	Y26	Z26	X27	Y27	Z27	X28	Y28	Z28	X29	Y29	Z29	X30	Y30	Z30	X31	Y31	Z31	X32	Y32	Z32	X33	Y33	Z33	X34	Y34	Z34	X35	Y35	Z35	X36	Y36	Z36	X37	Y37	Z37	X38	Y38	Z38	X39	Y39	Z39	X40	Y40	Z40	X41	Y41	Z41	X42	Y42	Z42	X43	Y43	Z43	X44	Y44	Z44	X45	Y45	Z45	X46	Y46	Z46	X47	Y47	Z47	X48	Y48	Z48	X49	Y49	Z49	X50	Y50	Z50	X51	Y51	Z51	X52	Y52	Z52	

45	0.44	45.34647750854494	874.0417480468755	25.94363212585451	117.4002380371094	914.927856445313	201.6032104492189	206.5156250000001	910.787231445313	205.5187835693361	284.1600646972657	889.0654907226567	29.74445724487306	-9.596981048583988	788.566528320313	101.0429382324219	39.85981369018556	435.7336120605471	138.6178131103516	153.7489013671876	426.4956359863284	122.5701065063477	38.72069168090822	375.8846435546876	167.9430389404297	88.28252410888675	350.2929077148439	110.2819519042969	91.82169342041018	65.84033966064456	242.3304290771486	179.5802764892579	75.25923156738284	219.8041992187501	137.7221984863282	29.96822357177736	288.4326171875001	161.2554626464844	23.28988075256348	108.8548583984376	99.89879608154303	35.31112670898439	98.82456207275396	54.28492736816409	23.78120613098145	154.6263122558594	345.7682189941407	789.8776855468755	113.9129257202149	347.3311157226564	466.6008911132815	-30.22703742980958	232.2112884521486	452.1590576171877	-70.22528839111331	348.8827514648439	406.9448852539065	-7.484392166137699	315.5399780273439	391.5938720703127	-80.58232116699222	306.2348937988282	99.53125000000006	61.37680816650393	235.3478546142579	107.3013916015626	4.064720630645754	240.2570190429689	64.58242797851565	96.01978302001959	281.7571105957032	38.68608474731447	-84.55035400390628	335.567352294922	51.97037124633792	-68.13925933837893	359.698944091797	41.05715942382814	-9.213949203491214	169.3546447753907	1379.578369140625	181.3344268798829	153.4278106689454	1146.263305664063	232.7248840332032	167.3109436035157	1164.002075195313	-3.486757993698122	172.8217163085938	1324.42529296875	47.23495101928712	54.25610733032229	1190.151245117188	224.6057739257814	72.26138305664065	1319.561157226563	213.4889678955079	-29.44344139099123	1327.74072265625	127.8870849609376	-6.75766229629517	1340.513061523438	90.7941818237305	-96.82783508300787	1063.0361328125	42.41516113281251	-33.38347625732423	1018.813598632813	80.179557800293	-83.9673767089844	1018.748840332032	70.71398925781253	-17.50887870788575	876.778198242188	-108.6276473999024	-93.86282348632815	861.756469726563	-92.02048492431643	-8.902173995971683	816.8816528320317	-171.9383544921876	-93.53223419189456	788.4082031250005	-119.8029403686524	263.2974548339845	1183.406005859375	247.2192535400392	248.8141174316407	1306.8994140625	226.2133941650392	357.4496459960939	1305.508056640625	158.9308319091797	351.8212280273439	1312.992431640625	109.0376129150391	409.2290039062502	1010.3046875	164.2250671386719	329.1868896484376	996.354858398438	179.9948120117188	374.6138305664064	989.196655273438	189.8734741210938	396.7569885253909	804.0154418945317	59.56995391845706	447.5493774414065	799.490112304688	128.1058654785157	416.137634277344	711.8023071289065	38.06623840332033	443.6630554199221	719.7855224609377	135.5135803222657	
46	0.45	45.82240295410158	872.6372680664067	16.49757385253907	118.5507354736329	913.7495117187505	191.9879455566407	207.5816345214845	909.550170898438	195.745086669922	284.5557250976564	887.5498046875005	19.61726188659669	-9.526135444641117	787.9712524414067	93.09080505371097	40.12293624877931	435.746520996094	136.4217376708985	153.8554077148438	425.8480529785159	120.0994567871094	39.00196456909181	376.2586059570314	166.3442840576172	88.28684234619143	349.8518066406251	108.8457107543946	92.1167907714844	66.24544525146487	242.2188110351564	179.7441406250001	75.57369232177737	219.3765411376954	138.207748413086	30.5359401702881	288.3474426269532	161.1298217773438	23.27031898498536	108.7991180419922	99.8194198608399	35.24718475341798	98.85925292968756	54.31778335571292	23.77109909057618	154.8187408447266	346.4569702148439	788.3065795898442	103.5241165161133	346.6222229003907	465.1055297851565	-42.7500686645508	231.3699951171876	451.6491699218752	-81.90956115722659	348.513397216797	404.1589050292971	-23.01967811584473	314.5766601562501	392.671569824219	-96.33093261718756	308.2423706054689	93.01794433593753	25.70595741271974	236.8820800781251	104.1906661987305	-30.45957756042482	242.7910766601564	55.3811950683594	57.89262390136722	282.840301513672	42.35446548461915	-123.902687072754	336.7337646484376	54.844108581543	-107.0699157714844	361.3568115234376	39.9650344848633	-49.45792770385745	170.2540283203126	1378.401000976563	170.0360565185547	154.0303039550782	1145.451782226563	222.3287963867189	168.0090637207032	1162.08984375	-13.93637084960938	173.9695434570313	1322.80908203125	35.92626571655275	54.59796524047854	1189.6240234375	213.511688232422	72.80456542968753	1318.851684570313	201.9875335693361	-28.55356597900392	1327.16796875	115.8545379638672	-5.484912395477297	1339.776489257813	78.8824157714844	-96.42292022705084	1062.962036132813	28.68775558471681	-33.14367294311525	1018.246520996094	66.1316833496094	-83.77884674072268	1018.264892578125	56.49654006958011	-14.79429054260255	880.4151000976567	-125.9288864135743	-91.22015380859378	864.2465820312505	-109.7480773925782	-5.486313819885256	821.7700805664067	-189.9857482910157	-90.13317871093753	791.4309082031255	-139.126449584961	263.5611877441407	1182.369140625	237.0173645019532	249.324432373047	1305.697387695313	215.3356933593751	358.1466674804689	1303.739379882813	148.4352722167969	352.7321166992189	1310.999633789063	98.4986190795899	409.8063049316409	1008.861755371094	156.5846405029297	329.3992309570314	994.934692382813	171.4568786621094	374.730682373047	987.8450317382817	181.7790069580079	397.925231933594	801.6001586914067	53.26600646972659	448.0788879394534	797.6192016601567	122.1631393432618	417.6159667968752	709.3045654296877	32.49605560302736	444.0645446777346	717.9128417968752	130.1362915039063	
47	0.46	46.38138580322267	871.1041870117192	6.977990627288822	119.7874984741212	912.4119262695317	182.293685913086	208.7389068603517	908.1110839843755	185.8441772460938	285.019012451172	885.7673339843755	9.413387298583988	-9.444826126098636	787.3472290039067	85.07769012451175	40.40766906738283	435.7818603515627	134.150375366211	153.9647674560547	425.2041931152346	117.4544525146485	39.28977203369142	376.6763305664064	164.6058197021485	88.277702331543	349.4019165039064	107.2742919921876	92.40073394775393	66.69219970703128	242.0812530517579	179.8790588378907	75.94366455078128	218.8746337890626	138.6995086669922	31.17996978759767	288.2369384765626	161.0069122314454	23.24390602111817	108.7702407836915	99.73687744140631	35.16567611694337	98.93198394775396	54.35002517700198	23.75932121276856	155.0472564697266	347.1592407226564	786.4516601562505	93.15106201171878	345.8921813964845	463.1235046386721	-54.61195755004886	230.4785156250001	450.5520019531252	-92.96311187744143	348.1567382812501	401.1392517089846	-38.08775329589845	313.5490112304689	393.4688110351565	-111.3810958862305	310.2827453613282	87.59241485595706	-10.08600616455078	238.3759918212892	102.0759582519532	-64.72587585449222	245.3892517089845	47.351619720459	19.53944778442384	283.554901123047	47.27010726928712	-162.5877380371094	337.5936279296876	58.86604309082034	-145.5259704589844	362.8304138183595	40.088191986084	-89.53517913818362	171.2465515136719	1377.047485351563	158.6895446777344	154.7530670166016	1144.45849609375	211.8795013427736	168.7893218994141	1159.996459960938	-24.43542480468751	175.2022247314454	1321.016723632813	24.57580947875978	55.07983779907229	1188.903442382813	202.3963012695314	73.47550201416018	1317.9638671875	190.4468688964844	-27.55376052856447	1326.384765625	103.7798614501954	-4.107261657714846	1338.820922851563	66.94577789306643	-95.90405273437503	1062.671020507813	15.18190288543702	-32.71726989746095	1017.490844726563	52.22652053833011	-83.45357513427737	1017.6064453125	42.48225784301759	-12.10745334625245	883.7973632812505	-142.8975830078126	-88.55883789062503	866.5001831054692	-127.0525512695313	-2.165828227996827	826.3923339843755	-207.6270141601564	-86.71760559082034	794.239135742188	-157.9399566650391	264.0021362304689	1181.187744140625	226.7356719970704	249.9638977050782	1304.33544921875	204.3812255859376	358.9557495117189	1301.827514648438	137.8285369873047	353.7318725585939	1308.868896484375	87.85127258300784	410.5054321289065	1007.29150390625	148.7147521972657	329.7282104492189	993.3672485351567	162.7229919433594	374.986785888672	986.3591308593755	173.4948120117188	399.0164184570315	799.0162963867192	46.85857009887697	448.6990661621096	795.665161132813	115.8961181640626	418.9295349121096	706.640808105469	26.78781890869142	444.6087036132815	715.9606933593752	124.512321472168	
48	0.47	47.00339889526369	869.4570312500005	-2.607482194900514	121.1212539672852	910.9234008789067	172.5209655761719	210.0010986328126	906.4729614257817	175.8037872314454	285.5340881347657	883.7429809570317	-0.8969478607177739	-9.341171264648441	786.6896362304692	76.9886169433594	40.71293258666994	435.8313903808596	131.7350616455079	154.0638885498047	424.5589294433596	114.5489196777344	39.58068466186525	377.1248168945314	162.6641235351563	88.2499923706055	348.9418029785157	105.497299194336	92.65629577636722	67.19221496582034	241.9049224853517	179.9833374023438	76.37590789794925	218.3031616210939	139.1779327392579	31.91954040527345	288.0985717773439	160.8842163085938	23.21821594238282	108.7664337158204	99.64801025390631	35.07325363159181	99.03831481933599	54.37775802612308	23.7494068145752	155.3005371093751	347.8812866210939	784.333374023438	82.75544738769534	345.1618652343751	460.7180175781252	-65.8906173706055	229.5377349853517	448.9216308593752	-103.4579849243165	347.8147888183595	397.9625549316409	-52.70703887939456	312.4757080078126	394.0092773437502	-125.7736434936524	312.2983398437501	83.29032897949222	-45.6809768676758	239.7857666015626	100.9499511718751	-98.45098876953131	247.9759063720704	40.56449508666994	-18.65941810607911	283.8873901367189	53.32270050048831	-200.2991638183595	338.1230773925782	63.96317291259768	-183.2001495361329	364.0730285644532	41.3969078063965	-129.0968322753907	172.3355407714844	1375.528930664063	147.2942352294922	155.5992889404297	1143.296752929688	201.3706359863282	169.6553344726563	1157.7392578125	-34.99212646484376	176.5272979736329	1319.060546875	13.19179248809815	55.70325469970706	1187.99365234375	191.2556915283204	74.2802658081055	1316.906982421875	178.8689270019532	-26.43782424926759	1325.395629882813	91.67034912109378	-2.621793270111085	1337.654052734375	54.99002075195315	-95.26672363281253	1062.166381835938	1.888117790222169	-32.10794830322267	1016.542785644532	38.47375106811525	-83.00179290771487	1016.776000976563	28.6766929626465	-9.455133438110355	886.8872680664067	-159.4891815185547	-85.88533020019534	868.499633789063	-143.9362487792969	1.059628486633301	830.7153320312505	-224.847869873047	-83.30023193359378	796.813598632813	-176.2432556152344	264.6077575683595	1179.851684570313	216.3614501953126	250.7331542968751	1302.818725585938	193.3492889404298	359.881317138672	1299.783325195313	127.1178131103516	354.8292236328126	1306.61474609375	77.1009216308594	411.3128967285159	1005.591186523438	140.5928344726563	330.1739807128907	991.6646118164067	153.8011169433594	375.378143310547	984.748168945313	165.0091247558594	400.0433654785159	796.2705688476567	40.33813476562501	449.4075622558596	793.625854492188	109.3197250366212	420.0957946777346	703.8194580078127	20.93170166015626	445.2860107421877	713.9334716796877	118.6491622924805	
